<mxfile host="app.diagrams.net" modified="2021-11-21T13:22:56.332Z" agent="5.0 (Windows NT 10.0; Win64; x64) AppleWebKit/537.36 (KHTML, like Gecko) Chrome/96.0.4664.45 Safari/537.36" etag="dtN_TEwStotE4c7hxuLA" version="15.8.3" type="github">
  <diagram id="1xL1-bMOx7UAWaj17Q07" name="Page-1">
    <mxGraphModel dx="1036" dy="633" grid="1" gridSize="10" guides="1" tooltips="1" connect="1" arrows="1" fold="1" page="1" pageScale="1" pageWidth="827" pageHeight="1169" math="0" shadow="0">
      <root>
        <mxCell id="0" />
        <mxCell id="1" parent="0" />
        <mxCell id="GbaE9u0jugHi_oA-KFXG-4" value="等待事件" style="rounded=0;orthogonalLoop=1;jettySize=auto;html=1;exitX=0;exitY=1;exitDx=0;exitDy=0;entryX=1;entryY=0;entryDx=0;entryDy=0;" edge="1" parent="1" source="GbaE9u0jugHi_oA-KFXG-1" target="GbaE9u0jugHi_oA-KFXG-2">
          <mxGeometry relative="1" as="geometry" />
        </mxCell>
        <mxCell id="GbaE9u0jugHi_oA-KFXG-7" value="时间片用完" style="edgeStyle=none;rounded=0;orthogonalLoop=1;jettySize=auto;html=1;exitX=1;exitY=0.5;exitDx=0;exitDy=0;entryX=0.613;entryY=0;entryDx=0;entryDy=0;entryPerimeter=0;" edge="1" parent="1" source="GbaE9u0jugHi_oA-KFXG-1" target="GbaE9u0jugHi_oA-KFXG-3">
          <mxGeometry relative="1" as="geometry" />
        </mxCell>
        <mxCell id="GbaE9u0jugHi_oA-KFXG-12" value="结束" style="edgeStyle=none;rounded=0;orthogonalLoop=1;jettySize=auto;html=1;exitX=0;exitY=0.5;exitDx=0;exitDy=0;" edge="1" parent="1" source="GbaE9u0jugHi_oA-KFXG-1" target="GbaE9u0jugHi_oA-KFXG-11">
          <mxGeometry relative="1" as="geometry" />
        </mxCell>
        <mxCell id="GbaE9u0jugHi_oA-KFXG-1" value="运行状态" style="ellipse;whiteSpace=wrap;html=1;fillColor=#dae8fc;strokeColor=#6c8ebf;" vertex="1" parent="1">
          <mxGeometry x="220" y="120" width="120" height="80" as="geometry" />
        </mxCell>
        <mxCell id="GbaE9u0jugHi_oA-KFXG-5" value="事件完成" style="edgeStyle=none;rounded=0;orthogonalLoop=1;jettySize=auto;html=1;exitX=1;exitY=0.5;exitDx=0;exitDy=0;" edge="1" parent="1" source="GbaE9u0jugHi_oA-KFXG-2" target="GbaE9u0jugHi_oA-KFXG-3">
          <mxGeometry relative="1" as="geometry" />
        </mxCell>
        <mxCell id="GbaE9u0jugHi_oA-KFXG-2" value="阻塞状态" style="ellipse;whiteSpace=wrap;html=1;fillColor=#d5e8d4;strokeColor=#82b366;" vertex="1" parent="1">
          <mxGeometry x="70" y="280" width="120" height="80" as="geometry" />
        </mxCell>
        <mxCell id="GbaE9u0jugHi_oA-KFXG-6" value="被调度" style="edgeStyle=none;rounded=0;orthogonalLoop=1;jettySize=auto;html=1;exitX=0;exitY=0;exitDx=0;exitDy=0;" edge="1" parent="1" source="GbaE9u0jugHi_oA-KFXG-3" target="GbaE9u0jugHi_oA-KFXG-1">
          <mxGeometry relative="1" as="geometry" />
        </mxCell>
        <mxCell id="GbaE9u0jugHi_oA-KFXG-3" value="就绪状态" style="ellipse;whiteSpace=wrap;html=1;fillColor=#e1d5e7;strokeColor=#9673a6;" vertex="1" parent="1">
          <mxGeometry x="380" y="280" width="120" height="80" as="geometry" />
        </mxCell>
        <mxCell id="GbaE9u0jugHi_oA-KFXG-10" value="进入就&lt;br&gt;绪队列" style="edgeStyle=none;rounded=0;orthogonalLoop=1;jettySize=auto;html=1;exitX=0;exitY=0.5;exitDx=0;exitDy=0;entryX=1;entryY=0.5;entryDx=0;entryDy=0;" edge="1" parent="1" source="GbaE9u0jugHi_oA-KFXG-9" target="GbaE9u0jugHi_oA-KFXG-3">
          <mxGeometry relative="1" as="geometry" />
        </mxCell>
        <mxCell id="GbaE9u0jugHi_oA-KFXG-9" value="创建状态" style="ellipse;whiteSpace=wrap;html=1;fillColor=#f8cecc;strokeColor=#b85450;" vertex="1" parent="1">
          <mxGeometry x="610" y="280" width="120" height="80" as="geometry" />
        </mxCell>
        <mxCell id="GbaE9u0jugHi_oA-KFXG-11" value="结束状态" style="ellipse;whiteSpace=wrap;html=1;fillColor=#fff2cc;strokeColor=#d6b656;" vertex="1" parent="1">
          <mxGeometry x="20" y="120" width="120" height="80" as="geometry" />
        </mxCell>
        <mxCell id="GbaE9u0jugHi_oA-KFXG-13" value="等待事件" style="rounded=0;orthogonalLoop=1;jettySize=auto;html=1;exitX=0;exitY=1;exitDx=0;exitDy=0;entryX=1;entryY=0;entryDx=0;entryDy=0;" edge="1" parent="1" source="GbaE9u0jugHi_oA-KFXG-16" target="GbaE9u0jugHi_oA-KFXG-18">
          <mxGeometry relative="1" as="geometry" />
        </mxCell>
        <mxCell id="GbaE9u0jugHi_oA-KFXG-14" value="时间片用完" style="edgeStyle=none;rounded=0;orthogonalLoop=1;jettySize=auto;html=1;exitX=1;exitY=0.5;exitDx=0;exitDy=0;entryX=0.613;entryY=0;entryDx=0;entryDy=0;entryPerimeter=0;" edge="1" parent="1" source="GbaE9u0jugHi_oA-KFXG-16" target="GbaE9u0jugHi_oA-KFXG-20">
          <mxGeometry relative="1" as="geometry" />
        </mxCell>
        <mxCell id="GbaE9u0jugHi_oA-KFXG-15" value="结束" style="edgeStyle=none;rounded=0;orthogonalLoop=1;jettySize=auto;html=1;exitX=0;exitY=0.5;exitDx=0;exitDy=0;" edge="1" parent="1" source="GbaE9u0jugHi_oA-KFXG-16" target="GbaE9u0jugHi_oA-KFXG-23">
          <mxGeometry relative="1" as="geometry" />
        </mxCell>
        <mxCell id="GbaE9u0jugHi_oA-KFXG-32" value="挂起" style="edgeStyle=none;rounded=0;orthogonalLoop=1;jettySize=auto;html=1;exitX=0.5;exitY=1;exitDx=0;exitDy=0;entryX=0.058;entryY=0.25;entryDx=0;entryDy=0;entryPerimeter=0;" edge="1" parent="1" source="GbaE9u0jugHi_oA-KFXG-16" target="GbaE9u0jugHi_oA-KFXG-27">
          <mxGeometry x="-0.4204" y="-1" relative="1" as="geometry">
            <mxPoint as="offset" />
          </mxGeometry>
        </mxCell>
        <mxCell id="GbaE9u0jugHi_oA-KFXG-16" value="运行状态" style="ellipse;whiteSpace=wrap;html=1;fillColor=#dae8fc;strokeColor=#6c8ebf;" vertex="1" parent="1">
          <mxGeometry x="220" y="480" width="120" height="80" as="geometry" />
        </mxCell>
        <mxCell id="GbaE9u0jugHi_oA-KFXG-17" value="事件完成" style="edgeStyle=none;rounded=0;orthogonalLoop=1;jettySize=auto;html=1;exitX=1;exitY=0.5;exitDx=0;exitDy=0;" edge="1" parent="1" source="GbaE9u0jugHi_oA-KFXG-18" target="GbaE9u0jugHi_oA-KFXG-20">
          <mxGeometry relative="1" as="geometry" />
        </mxCell>
        <mxCell id="GbaE9u0jugHi_oA-KFXG-25" value="挂起" style="edgeStyle=none;rounded=0;orthogonalLoop=1;jettySize=auto;html=1;exitX=0;exitY=1;exitDx=0;exitDy=0;entryX=0;entryY=0;entryDx=0;entryDy=0;" edge="1" parent="1" source="GbaE9u0jugHi_oA-KFXG-18" target="GbaE9u0jugHi_oA-KFXG-24">
          <mxGeometry relative="1" as="geometry" />
        </mxCell>
        <mxCell id="GbaE9u0jugHi_oA-KFXG-18" value="阻塞状态" style="ellipse;whiteSpace=wrap;html=1;fillColor=#d5e8d4;strokeColor=#82b366;" vertex="1" parent="1">
          <mxGeometry x="70" y="640" width="120" height="80" as="geometry" />
        </mxCell>
        <mxCell id="GbaE9u0jugHi_oA-KFXG-19" value="被调度" style="edgeStyle=none;rounded=0;orthogonalLoop=1;jettySize=auto;html=1;exitX=0;exitY=0;exitDx=0;exitDy=0;" edge="1" parent="1" source="GbaE9u0jugHi_oA-KFXG-20" target="GbaE9u0jugHi_oA-KFXG-16">
          <mxGeometry relative="1" as="geometry" />
        </mxCell>
        <mxCell id="GbaE9u0jugHi_oA-KFXG-28" value="挂起" style="edgeStyle=none;rounded=0;orthogonalLoop=1;jettySize=auto;html=1;exitX=0;exitY=1;exitDx=0;exitDy=0;entryX=0;entryY=0;entryDx=0;entryDy=0;" edge="1" parent="1" source="GbaE9u0jugHi_oA-KFXG-20" target="GbaE9u0jugHi_oA-KFXG-27">
          <mxGeometry relative="1" as="geometry" />
        </mxCell>
        <mxCell id="GbaE9u0jugHi_oA-KFXG-20" value="就绪状态" style="ellipse;whiteSpace=wrap;html=1;fillColor=#e1d5e7;strokeColor=#9673a6;" vertex="1" parent="1">
          <mxGeometry x="380" y="640" width="120" height="80" as="geometry" />
        </mxCell>
        <mxCell id="GbaE9u0jugHi_oA-KFXG-21" value="进入就&lt;br&gt;绪队列" style="edgeStyle=none;rounded=0;orthogonalLoop=1;jettySize=auto;html=1;exitX=0;exitY=0.5;exitDx=0;exitDy=0;entryX=1;entryY=0.5;entryDx=0;entryDy=0;" edge="1" parent="1" source="GbaE9u0jugHi_oA-KFXG-22" target="GbaE9u0jugHi_oA-KFXG-20">
          <mxGeometry relative="1" as="geometry" />
        </mxCell>
        <mxCell id="GbaE9u0jugHi_oA-KFXG-31" value="进入就绪挂起状态" style="edgeStyle=none;rounded=0;orthogonalLoop=1;jettySize=auto;html=1;exitX=0.5;exitY=1;exitDx=0;exitDy=0;entryX=1;entryY=0.5;entryDx=0;entryDy=0;" edge="1" parent="1" source="GbaE9u0jugHi_oA-KFXG-22" target="GbaE9u0jugHi_oA-KFXG-27">
          <mxGeometry relative="1" as="geometry" />
        </mxCell>
        <mxCell id="GbaE9u0jugHi_oA-KFXG-22" value="创建状态" style="ellipse;whiteSpace=wrap;html=1;fillColor=#f8cecc;strokeColor=#b85450;" vertex="1" parent="1">
          <mxGeometry x="610" y="640" width="120" height="80" as="geometry" />
        </mxCell>
        <mxCell id="GbaE9u0jugHi_oA-KFXG-23" value="结束状态" style="ellipse;whiteSpace=wrap;html=1;fillColor=#fff2cc;strokeColor=#d6b656;" vertex="1" parent="1">
          <mxGeometry x="20" y="480" width="120" height="80" as="geometry" />
        </mxCell>
        <mxCell id="GbaE9u0jugHi_oA-KFXG-26" value="激活" style="edgeStyle=none;rounded=0;orthogonalLoop=1;jettySize=auto;html=1;exitX=1;exitY=0;exitDx=0;exitDy=0;entryX=1;entryY=1;entryDx=0;entryDy=0;" edge="1" parent="1" source="GbaE9u0jugHi_oA-KFXG-24" target="GbaE9u0jugHi_oA-KFXG-18">
          <mxGeometry relative="1" as="geometry" />
        </mxCell>
        <mxCell id="GbaE9u0jugHi_oA-KFXG-24" value="阻塞挂起状态" style="ellipse;whiteSpace=wrap;html=1;fillColor=#ffe6cc;strokeColor=#d79b00;" vertex="1" parent="1">
          <mxGeometry x="70" y="780" width="120" height="80" as="geometry" />
        </mxCell>
        <mxCell id="GbaE9u0jugHi_oA-KFXG-29" value="激活" style="edgeStyle=none;rounded=0;orthogonalLoop=1;jettySize=auto;html=1;exitX=1;exitY=0;exitDx=0;exitDy=0;entryX=1;entryY=1;entryDx=0;entryDy=0;" edge="1" parent="1" source="GbaE9u0jugHi_oA-KFXG-27" target="GbaE9u0jugHi_oA-KFXG-20">
          <mxGeometry relative="1" as="geometry" />
        </mxCell>
        <mxCell id="GbaE9u0jugHi_oA-KFXG-30" value="事件出现" style="edgeStyle=none;rounded=0;orthogonalLoop=1;jettySize=auto;html=1;exitX=0;exitY=0.5;exitDx=0;exitDy=0;entryX=1;entryY=0.5;entryDx=0;entryDy=0;" edge="1" parent="1" source="GbaE9u0jugHi_oA-KFXG-27" target="GbaE9u0jugHi_oA-KFXG-24">
          <mxGeometry relative="1" as="geometry" />
        </mxCell>
        <mxCell id="GbaE9u0jugHi_oA-KFXG-27" value="就绪挂起状态" style="ellipse;whiteSpace=wrap;html=1;fillColor=#b0e3e6;strokeColor=#0e8088;" vertex="1" parent="1">
          <mxGeometry x="380" y="780" width="120" height="80" as="geometry" />
        </mxCell>
        <mxCell id="GbaE9u0jugHi_oA-KFXG-35" style="edgeStyle=none;rounded=0;orthogonalLoop=1;jettySize=auto;html=1;exitX=1;exitY=0.5;exitDx=0;exitDy=0;entryX=0;entryY=0.5;entryDx=0;entryDy=0;" edge="1" parent="1" source="GbaE9u0jugHi_oA-KFXG-33" target="GbaE9u0jugHi_oA-KFXG-34">
          <mxGeometry relative="1" as="geometry" />
        </mxCell>
        <mxCell id="GbaE9u0jugHi_oA-KFXG-33" value="执行指针" style="rounded=1;whiteSpace=wrap;html=1;align=center;fillColor=#fad9d5;strokeColor=#ae4132;" vertex="1" parent="1">
          <mxGeometry x="109" y="1270" width="120" height="60" as="geometry" />
        </mxCell>
        <mxCell id="GbaE9u0jugHi_oA-KFXG-34" value="PCB2" style="rounded=1;whiteSpace=wrap;html=1;align=center;fillColor=#cce5ff;strokeColor=#36393d;" vertex="1" parent="1">
          <mxGeometry x="379" y="1270" width="120" height="60" as="geometry" />
        </mxCell>
        <mxCell id="GbaE9u0jugHi_oA-KFXG-38" style="edgeStyle=none;rounded=0;orthogonalLoop=1;jettySize=auto;html=1;exitX=1;exitY=0.5;exitDx=0;exitDy=0;" edge="1" parent="1" source="GbaE9u0jugHi_oA-KFXG-36" target="GbaE9u0jugHi_oA-KFXG-37">
          <mxGeometry relative="1" as="geometry" />
        </mxCell>
        <mxCell id="GbaE9u0jugHi_oA-KFXG-36" value="就绪队列指针" style="rounded=1;whiteSpace=wrap;html=1;align=center;fillColor=#fad9d5;strokeColor=#ae4132;" vertex="1" parent="1">
          <mxGeometry x="109" y="1370" width="120" height="60" as="geometry" />
        </mxCell>
        <mxCell id="GbaE9u0jugHi_oA-KFXG-40" style="edgeStyle=none;rounded=0;orthogonalLoop=1;jettySize=auto;html=1;exitX=1;exitY=0.5;exitDx=0;exitDy=0;entryX=0;entryY=0.5;entryDx=0;entryDy=0;fillColor=#cce5ff;strokeColor=#36393d;" edge="1" parent="1" source="GbaE9u0jugHi_oA-KFXG-37" target="GbaE9u0jugHi_oA-KFXG-39">
          <mxGeometry relative="1" as="geometry" />
        </mxCell>
        <mxCell id="GbaE9u0jugHi_oA-KFXG-37" value="PCB5" style="rounded=1;whiteSpace=wrap;html=1;align=center;fillColor=#cce5ff;strokeColor=#36393d;" vertex="1" parent="1">
          <mxGeometry x="309" y="1370" width="120" height="60" as="geometry" />
        </mxCell>
        <mxCell id="GbaE9u0jugHi_oA-KFXG-42" style="edgeStyle=none;rounded=0;orthogonalLoop=1;jettySize=auto;html=1;exitX=1;exitY=0.5;exitDx=0;exitDy=0;entryX=0;entryY=0.5;entryDx=0;entryDy=0;fillColor=#cce5ff;strokeColor=#36393d;" edge="1" parent="1" source="GbaE9u0jugHi_oA-KFXG-39" target="GbaE9u0jugHi_oA-KFXG-41">
          <mxGeometry relative="1" as="geometry" />
        </mxCell>
        <mxCell id="GbaE9u0jugHi_oA-KFXG-39" value="PCB1" style="rounded=1;whiteSpace=wrap;html=1;align=center;fillColor=#cce5ff;strokeColor=#36393d;" vertex="1" parent="1">
          <mxGeometry x="469" y="1370" width="120" height="60" as="geometry" />
        </mxCell>
        <mxCell id="GbaE9u0jugHi_oA-KFXG-41" value="PCB4" style="rounded=1;whiteSpace=wrap;html=1;align=center;fillColor=#cce5ff;strokeColor=#36393d;" vertex="1" parent="1">
          <mxGeometry x="629" y="1370" width="120" height="60" as="geometry" />
        </mxCell>
        <mxCell id="GbaE9u0jugHi_oA-KFXG-43" style="edgeStyle=none;rounded=0;orthogonalLoop=1;jettySize=auto;html=1;exitX=1;exitY=0.5;exitDx=0;exitDy=0;" edge="1" parent="1" source="GbaE9u0jugHi_oA-KFXG-44" target="GbaE9u0jugHi_oA-KFXG-46">
          <mxGeometry relative="1" as="geometry" />
        </mxCell>
        <mxCell id="GbaE9u0jugHi_oA-KFXG-44" value="阻塞队列指针" style="rounded=1;whiteSpace=wrap;html=1;align=center;fillColor=#fad9d5;strokeColor=#ae4132;" vertex="1" parent="1">
          <mxGeometry x="109" y="1470" width="120" height="60" as="geometry" />
        </mxCell>
        <mxCell id="GbaE9u0jugHi_oA-KFXG-45" style="edgeStyle=none;rounded=0;orthogonalLoop=1;jettySize=auto;html=1;exitX=1;exitY=0.5;exitDx=0;exitDy=0;entryX=0;entryY=0.5;entryDx=0;entryDy=0;fillColor=#cce5ff;strokeColor=#36393d;" edge="1" parent="1" source="GbaE9u0jugHi_oA-KFXG-46" target="GbaE9u0jugHi_oA-KFXG-48">
          <mxGeometry relative="1" as="geometry" />
        </mxCell>
        <mxCell id="GbaE9u0jugHi_oA-KFXG-46" value="PCB3" style="rounded=1;whiteSpace=wrap;html=1;align=center;fillColor=#cce5ff;strokeColor=#36393d;" vertex="1" parent="1">
          <mxGeometry x="309" y="1470" width="120" height="60" as="geometry" />
        </mxCell>
        <mxCell id="GbaE9u0jugHi_oA-KFXG-47" style="edgeStyle=none;rounded=0;orthogonalLoop=1;jettySize=auto;html=1;exitX=1;exitY=0.5;exitDx=0;exitDy=0;entryX=0;entryY=0.5;entryDx=0;entryDy=0;fillColor=#cce5ff;strokeColor=#36393d;" edge="1" parent="1" source="GbaE9u0jugHi_oA-KFXG-48" target="GbaE9u0jugHi_oA-KFXG-49">
          <mxGeometry relative="1" as="geometry" />
        </mxCell>
        <mxCell id="GbaE9u0jugHi_oA-KFXG-48" value="PCB7" style="rounded=1;whiteSpace=wrap;html=1;align=center;fillColor=#cce5ff;strokeColor=#36393d;" vertex="1" parent="1">
          <mxGeometry x="469" y="1470" width="120" height="60" as="geometry" />
        </mxCell>
        <mxCell id="GbaE9u0jugHi_oA-KFXG-49" value="PCB6" style="rounded=1;whiteSpace=wrap;html=1;align=center;fillColor=#cce5ff;strokeColor=#36393d;" vertex="1" parent="1">
          <mxGeometry x="629" y="1470" width="120" height="60" as="geometry" />
        </mxCell>
        <mxCell id="GbaE9u0jugHi_oA-KFXG-50" value="指向当前处于运行态的进程" style="text;html=1;strokeColor=none;fillColor=none;align=center;verticalAlign=middle;whiteSpace=wrap;rounded=0;" vertex="1" parent="1">
          <mxGeometry x="99" y="1240" width="150" height="30" as="geometry" />
        </mxCell>
        <mxCell id="GbaE9u0jugHi_oA-KFXG-51" value="单 CPU 计算机中，同一时刻只会有一个进程处于运行状态" style="text;html=1;strokeColor=none;fillColor=none;align=center;verticalAlign=middle;whiteSpace=wrap;rounded=0;" vertex="1" parent="1">
          <mxGeometry x="346.5" y="1240" width="165" height="30" as="geometry" />
        </mxCell>
        <mxCell id="GbaE9u0jugHi_oA-KFXG-52" value="指向当前处于就绪态的进程" style="text;html=1;strokeColor=none;fillColor=none;align=center;verticalAlign=middle;whiteSpace=wrap;rounded=0;" vertex="1" parent="1">
          <mxGeometry x="91.5" y="1340" width="165" height="30" as="geometry" />
        </mxCell>
        <mxCell id="GbaE9u0jugHi_oA-KFXG-53" value="通常会把优先级高的进程放到对头" style="text;html=1;strokeColor=none;fillColor=none;align=center;verticalAlign=middle;whiteSpace=wrap;rounded=0;" vertex="1" parent="1">
          <mxGeometry x="279" y="1340" width="200" height="30" as="geometry" />
        </mxCell>
        <mxCell id="GbaE9u0jugHi_oA-KFXG-54" value="指向当前处于阻塞态的进程，很多操作系统会根据阻塞原因不同，再分为多个阻塞队列" style="text;html=1;strokeColor=none;fillColor=none;align=center;verticalAlign=middle;whiteSpace=wrap;rounded=0;" vertex="1" parent="1">
          <mxGeometry x="79" y="1440" width="230" height="30" as="geometry" />
        </mxCell>
        <mxCell id="GbaE9u0jugHi_oA-KFXG-78" style="edgeStyle=none;rounded=0;orthogonalLoop=1;jettySize=auto;html=1;exitX=1;exitY=0.5;exitDx=0;exitDy=0;entryX=0;entryY=0.5;entryDx=0;entryDy=0;" edge="1" parent="1" source="GbaE9u0jugHi_oA-KFXG-55" target="GbaE9u0jugHi_oA-KFXG-74">
          <mxGeometry relative="1" as="geometry" />
        </mxCell>
        <mxCell id="GbaE9u0jugHi_oA-KFXG-55" value="就绪表指针" style="rounded=1;whiteSpace=wrap;html=1;align=center;fillColor=#ffcccc;strokeColor=#36393d;" vertex="1" parent="1">
          <mxGeometry x="145.5" y="1730" width="111" height="60" as="geometry" />
        </mxCell>
        <mxCell id="GbaE9u0jugHi_oA-KFXG-56" style="edgeStyle=none;rounded=0;orthogonalLoop=1;jettySize=auto;html=1;exitX=1;exitY=0.5;exitDx=0;exitDy=0;entryX=0;entryY=0.5;entryDx=0;entryDy=0;" edge="1" parent="1" source="GbaE9u0jugHi_oA-KFXG-57" target="GbaE9u0jugHi_oA-KFXG-58">
          <mxGeometry relative="1" as="geometry" />
        </mxCell>
        <mxCell id="GbaE9u0jugHi_oA-KFXG-57" value="执行指针" style="rounded=1;whiteSpace=wrap;html=1;align=center;fillColor=#fad9d5;strokeColor=#ae4132;" vertex="1" parent="1">
          <mxGeometry x="145.5" y="1610" width="120" height="60" as="geometry" />
        </mxCell>
        <mxCell id="GbaE9u0jugHi_oA-KFXG-58" value="PCB2" style="rounded=1;whiteSpace=wrap;html=1;align=center;fillColor=#cce5ff;strokeColor=#36393d;" vertex="1" parent="1">
          <mxGeometry x="415.5" y="1610" width="120" height="60" as="geometry" />
        </mxCell>
        <mxCell id="GbaE9u0jugHi_oA-KFXG-74" value="就绪索引表" style="rounded=1;whiteSpace=wrap;html=1;align=center;fillColor=#cdeb8b;strokeColor=#36393d;" vertex="1" parent="1">
          <mxGeometry x="414" y="1740" width="106" height="40" as="geometry" />
        </mxCell>
        <mxCell id="GbaE9u0jugHi_oA-KFXG-85" style="edgeStyle=none;rounded=0;orthogonalLoop=1;jettySize=auto;html=1;exitX=1;exitY=0.5;exitDx=0;exitDy=0;entryX=0;entryY=0.5;entryDx=0;entryDy=0;" edge="1" parent="1" source="GbaE9u0jugHi_oA-KFXG-75" target="GbaE9u0jugHi_oA-KFXG-80">
          <mxGeometry relative="1" as="geometry" />
        </mxCell>
        <mxCell id="GbaE9u0jugHi_oA-KFXG-75" value="" style="rounded=1;whiteSpace=wrap;html=1;align=center;fillColor=#cdeb8b;strokeColor=#36393d;" vertex="1" parent="1">
          <mxGeometry x="414" y="1780" width="106" height="40" as="geometry" />
        </mxCell>
        <mxCell id="GbaE9u0jugHi_oA-KFXG-86" style="edgeStyle=none;rounded=0;orthogonalLoop=1;jettySize=auto;html=1;exitX=1;exitY=0.5;exitDx=0;exitDy=0;entryX=0;entryY=0.5;entryDx=0;entryDy=0;" edge="1" parent="1" source="GbaE9u0jugHi_oA-KFXG-76" target="GbaE9u0jugHi_oA-KFXG-82">
          <mxGeometry relative="1" as="geometry" />
        </mxCell>
        <mxCell id="GbaE9u0jugHi_oA-KFXG-76" value="" style="rounded=1;whiteSpace=wrap;html=1;align=center;fillColor=#cdeb8b;strokeColor=#36393d;" vertex="1" parent="1">
          <mxGeometry x="414" y="1820" width="106" height="40" as="geometry" />
        </mxCell>
        <mxCell id="GbaE9u0jugHi_oA-KFXG-87" style="edgeStyle=none;rounded=0;orthogonalLoop=1;jettySize=auto;html=1;exitX=1;exitY=0.5;exitDx=0;exitDy=0;entryX=0;entryY=0.5;entryDx=0;entryDy=0;" edge="1" parent="1" source="GbaE9u0jugHi_oA-KFXG-77" target="GbaE9u0jugHi_oA-KFXG-83">
          <mxGeometry relative="1" as="geometry" />
        </mxCell>
        <mxCell id="GbaE9u0jugHi_oA-KFXG-77" value="" style="rounded=1;whiteSpace=wrap;html=1;align=center;fillColor=#cdeb8b;strokeColor=#36393d;" vertex="1" parent="1">
          <mxGeometry x="414" y="1860" width="106" height="40" as="geometry" />
        </mxCell>
        <mxCell id="GbaE9u0jugHi_oA-KFXG-80" value="PCB5" style="rounded=1;whiteSpace=wrap;html=1;align=center;fillColor=#cce5ff;strokeColor=#36393d;" vertex="1" parent="1">
          <mxGeometry x="589" y="1700" width="120" height="60" as="geometry" />
        </mxCell>
        <mxCell id="GbaE9u0jugHi_oA-KFXG-82" value="PCB1" style="rounded=1;whiteSpace=wrap;html=1;align=center;fillColor=#cce5ff;strokeColor=#36393d;" vertex="1" parent="1">
          <mxGeometry x="589" y="1790" width="120" height="60" as="geometry" />
        </mxCell>
        <mxCell id="GbaE9u0jugHi_oA-KFXG-83" value="PCB4" style="rounded=1;whiteSpace=wrap;html=1;align=center;fillColor=#cce5ff;strokeColor=#36393d;" vertex="1" parent="1">
          <mxGeometry x="589" y="1880" width="120" height="60" as="geometry" />
        </mxCell>
        <mxCell id="GbaE9u0jugHi_oA-KFXG-88" style="edgeStyle=none;rounded=0;orthogonalLoop=1;jettySize=auto;html=1;exitX=1;exitY=0.5;exitDx=0;exitDy=0;entryX=0;entryY=0.5;entryDx=0;entryDy=0;" edge="1" parent="1" source="GbaE9u0jugHi_oA-KFXG-89" target="GbaE9u0jugHi_oA-KFXG-90">
          <mxGeometry relative="1" as="geometry" />
        </mxCell>
        <mxCell id="GbaE9u0jugHi_oA-KFXG-89" value="阻塞表指针" style="rounded=1;whiteSpace=wrap;html=1;align=center;fillColor=#ffcccc;strokeColor=#36393d;" vertex="1" parent="1">
          <mxGeometry x="145.5" y="1990" width="111" height="60" as="geometry" />
        </mxCell>
        <mxCell id="GbaE9u0jugHi_oA-KFXG-90" value="阻塞索引表" style="rounded=1;whiteSpace=wrap;html=1;align=center;fillColor=#cdeb8b;strokeColor=#36393d;" vertex="1" parent="1">
          <mxGeometry x="414" y="2000" width="106" height="40" as="geometry" />
        </mxCell>
        <mxCell id="GbaE9u0jugHi_oA-KFXG-91" style="edgeStyle=none;rounded=0;orthogonalLoop=1;jettySize=auto;html=1;exitX=1;exitY=0.5;exitDx=0;exitDy=0;entryX=0;entryY=0.5;entryDx=0;entryDy=0;" edge="1" parent="1" source="GbaE9u0jugHi_oA-KFXG-92" target="GbaE9u0jugHi_oA-KFXG-97">
          <mxGeometry relative="1" as="geometry" />
        </mxCell>
        <mxCell id="GbaE9u0jugHi_oA-KFXG-92" value="" style="rounded=1;whiteSpace=wrap;html=1;align=center;fillColor=#cdeb8b;strokeColor=#36393d;" vertex="1" parent="1">
          <mxGeometry x="414" y="2040" width="106" height="40" as="geometry" />
        </mxCell>
        <mxCell id="GbaE9u0jugHi_oA-KFXG-93" style="edgeStyle=none;rounded=0;orthogonalLoop=1;jettySize=auto;html=1;exitX=1;exitY=0.5;exitDx=0;exitDy=0;entryX=0;entryY=0.5;entryDx=0;entryDy=0;" edge="1" parent="1" source="GbaE9u0jugHi_oA-KFXG-94" target="GbaE9u0jugHi_oA-KFXG-98">
          <mxGeometry relative="1" as="geometry" />
        </mxCell>
        <mxCell id="GbaE9u0jugHi_oA-KFXG-94" value="" style="rounded=1;whiteSpace=wrap;html=1;align=center;fillColor=#cdeb8b;strokeColor=#36393d;" vertex="1" parent="1">
          <mxGeometry x="414" y="2080" width="106" height="40" as="geometry" />
        </mxCell>
        <mxCell id="GbaE9u0jugHi_oA-KFXG-95" style="edgeStyle=none;rounded=0;orthogonalLoop=1;jettySize=auto;html=1;exitX=1;exitY=0.5;exitDx=0;exitDy=0;entryX=0;entryY=0.5;entryDx=0;entryDy=0;" edge="1" parent="1" source="GbaE9u0jugHi_oA-KFXG-96" target="GbaE9u0jugHi_oA-KFXG-99">
          <mxGeometry relative="1" as="geometry" />
        </mxCell>
        <mxCell id="GbaE9u0jugHi_oA-KFXG-96" value="" style="rounded=1;whiteSpace=wrap;html=1;align=center;fillColor=#cdeb8b;strokeColor=#36393d;" vertex="1" parent="1">
          <mxGeometry x="414" y="2120" width="106" height="40" as="geometry" />
        </mxCell>
        <mxCell id="GbaE9u0jugHi_oA-KFXG-97" value="PCB6" style="rounded=1;whiteSpace=wrap;html=1;align=center;fillColor=#cce5ff;strokeColor=#36393d;" vertex="1" parent="1">
          <mxGeometry x="589" y="1960" width="120" height="60" as="geometry" />
        </mxCell>
        <mxCell id="GbaE9u0jugHi_oA-KFXG-98" value="PCB7" style="rounded=1;whiteSpace=wrap;html=1;align=center;fillColor=#cce5ff;strokeColor=#36393d;" vertex="1" parent="1">
          <mxGeometry x="589" y="2050" width="120" height="60" as="geometry" />
        </mxCell>
        <mxCell id="GbaE9u0jugHi_oA-KFXG-99" value="PCB3" style="rounded=1;whiteSpace=wrap;html=1;align=center;fillColor=#cce5ff;strokeColor=#36393d;" vertex="1" parent="1">
          <mxGeometry x="589" y="2140" width="120" height="60" as="geometry" />
        </mxCell>
      </root>
    </mxGraphModel>
  </diagram>
</mxfile>
